<svg xmlns="http://www.w3.org/2000/svg" class="" id="FxSymbol0-086" role="presentation" viewBox="0 0 84.1 111.4" focusable="false" xmlns:xlink="http://www.w3.org/1999/xlink" xmlns:svg="http://www.w3.org/2000/svg">
<g>
<title/>
<path fill="#005f87" d="M 0 15.2 v 80.9 c 0 8.5 18.8 15.2 41.9 15.2 V 15.2 H 0 Z"/>
<path fill="#0f80b0" d="M 41.5 111.4 h 0.7 c 23.3 0 41.9 -6.7 41.9 -15.2 v -81 H 41.5 v 96.2 Z"/>
<path class="msportalfx-svg-c01" fill="#ffffff" d="M 84.1 15.2 c 0 8.3 -18.8 15.2 -41.9 15.2 S 0 23.5 0 15.2 S 18.8 0 41.9 0 s 42.2 7 42.2 15.2"/>
<path fill="#7fb900" d="M 75.6 14.3 c 0 5.6 -15 10.1 -33.4 10.1 S 8.5 20 8.5 14.3 s 15 -10.1 33.4 -10.1 s 33.7 4.5 33.7 10.1"/>
<path fill="#b7d332" d="M 68.4 20.4 c 4.5 -1.8 7 -3.8 7 -6.1 c 0 -5.6 -15 -10.1 -33.4 -10.1 S 8.5 8.7 8.5 14.3 c 0 2.2 2.7 4.5 7 6.1 c 6.1 -2.5 15.7 -3.8 26.5 -3.8 s 20.3 1.6 26.4 3.8"/>
<path class="msportalfx-svg-c01" fill="#ffffff" d="M 75.5 72.7 c 0 4.8 -3.3 8.9 -8 8.9 h -18 v -7 h 16 c 1 -0.1 1.8 -2.9 1.8 -2.9 l -1.8 0.9 h -10 c -4 0 -7 -2.3 -7 -6 v -11 l -3 -1 v 19 h -8 V 59.1 L 33 69.3 c -1.2 2.7 -2.4 4.4 -5.4 4.4 c -2.9 0.1 -5.6 -1.7 -6.7 -4.4 l -4.3 -10.6 v 15 h -8 V 51.4 c 0 -2.6 0.5 -4.2 2.9 -4.9 c 1.1 -0.4 2.2 -0.6 3.4 -0.6 c 2.7 -0.1 5.1 1.4 6.1 3.9 l 6.6 12.8 l 5.3 -12.8 c 1 -2.5 3.4 -4 6.1 -3.9 c 1.1 0 2.3 0.2 3.4 0.5 c 2.4 0.8 3.2 2.6 3.2 5.2 v 2.8 c 0 0.1 -0.1 0.2 0 0.2 h 12 v 10 c 0.5 0.6 1.2 0.9 2 1 h 7 v -11 h 9 v 18.1 h -0.1 Z"/>
</g>
</svg>