<svg id="Layer_1" data-name="Layer 1" xmlns="http://www.w3.org/2000/svg" viewBox="0 0 42.062 45"><title>DeveloperTools</title><path d="M35.587,10.379l.449.449,2.247-1.887,3.775-6.2-.989-.989L35.138,5.705l-1.8,2.337.449.449L22.016,20.625l-2.427-2.517-2.7,2.786a4.832,4.832,0,0,1-1.258,3.865,4.262,4.262,0,0,1-3.685,1.348L0,38.331l6.651,6.921L18.511,32.938a4.61,4.61,0,0,1,1.348-3.865,4.262,4.262,0,0,1,3.685-1.348l2.7-2.786-2.427-2.517Z" transform="translate(0.004 -0.251)" fill="#00abec"/><path d="M34.509,41.656a4.24,4.24,0,0,0,6.2,0,4.469,4.469,0,0,0,1.258-3.236,4.877,4.877,0,0,0-1.258-3.236l-13.3-13.661L26.15,22.872l2.427,2.517-1.079.989-2.7,2.786-.36.36-.539-.09a5.125,5.125,0,0,0-1.168.09Z" transform="translate(0.004 -0.251)" fill="#525252" opacity="0.8"/><path d="M16.927,3.175A9.24,9.24,0,0,0,7.98.517L13.2,5.993l-1.432,5.281L6.531,12.629,1.4,7.155a9.838,9.838,0,0,0,2.28,9.294,9.1,9.1,0,0,0,9.038,2.569l.177.183,2.387,2.554a2.488,2.488,0,0,0,.1-.807L15.4,20.5l-.174-.362,4.111-4.16.706.82,1.591,1.733L22.908,17.2l-3.8-4.195h0A9.962,9.962,0,0,0,16.927,3.175Z" transform="translate(0.004 -0.251)" fill="#525252" opacity="0.8"/></svg>