<?xml version="1.0" encoding="utf-8"?>
<!-- Generator: Adobe Illustrator 20.1.0, SVG Export Plug-In . SVG Version: 6.00 Build 0)  -->
<svg version="1.1" id="Layer_1" xmlns="http://www.w3.org/2000/svg" xmlns:xlink="http://www.w3.org/1999/xlink" x="0px" y="0px"
	 width="50px" height="50px" viewBox="0 0 50 50" enable-background="new 0 0 50 50" xml:space="preserve">
<path id="docker_2_" fill-rule="evenodd" clip-rule="evenodd" fill="#394D54" d="M37.02,43.334c1.125-0.964,2.25-1.929,3.371-2.897
	c0.383-0.331,0.804-0.674,1.184-1.021c-0.305-0.384-0.815-0.662-1.248-0.827c-0.874-0.333-1.736-0.221-2.537,0.242
	c-1.049,0.606-1.496,1.571-1.457,2.771c0.015,0.473,0.143,0.928,0.394,1.331C36.815,43.074,36.913,43.207,37.02,43.334
	 M38.321,44.248c0.551,0.192,1.18,0.165,1.746,0.066c0.289-0.123,1.029-0.446,1.302-0.398l0.043,0.007l0.039,0.019
	c0.166,0.081,0.325,0.195,0.41,0.363c0.198,0.397,0.103,0.795-0.286,1.02l-0.13,0.075c-1.437,0.83-2.966,0.715-4.399-0.06
	c-0.685-0.37-1.209-0.92-1.596-1.59l-0.09-0.157c-0.923-1.598-0.798-3.279,0.242-4.799c0.359-0.525,0.829-0.931,1.378-1.248
	l0.208-0.12c1.354-0.781,2.804-0.728,4.195-0.042c0.747,0.369,1.353,0.919,1.77,1.642l0.075,0.13
	c0.303,0.525-0.09,0.983-0.495,1.296c-0.47,0.363-0.945,0.8-1.397,1.189C40.33,42.509,39.326,43.379,38.321,44.248z M49.092,36.978
	h0.15c0.455,0,0.758,0.306,0.758,0.758c0,0.627-0.6,0.788-1.119,0.788c-0.681,0-1.33,0.412-1.799,0.874
	c-0.585,0.577-0.841,1.315-0.841,2.127v3.669c0,0.421-0.262,0.758-0.698,0.758h-0.119c-0.436,0-0.698-0.338-0.698-0.758v-3.879
	c0-1.49,0.725-2.705,1.934-3.558C47.381,37.247,48.208,36.978,49.092,36.978z M30.205,39.582c0.589-0.589,1.179-1.178,1.777-1.757
	c0.167-0.162,0.797-0.846,1.045-0.846h0.271l0.031,0.006c0.346,0.072,0.605,0.291,0.605,0.662v0.15c0,0.253-0.297,0.548-0.46,0.721
	c-0.348,0.369-0.715,0.726-1.071,1.087l-1.831,1.858c0.788,0.79,1.576,1.581,2.358,2.377c0.216,0.22,0.433,0.441,0.646,0.664
	c0.075,0.079,0.186,0.178,0.25,0.288c0.068,0.103,0.109,0.219,0.109,0.342v0.157l-0.009,0.036c-0.085,0.346-0.305,0.625-0.688,0.625
	h-0.12c-0.251,0-0.534-0.284-0.706-0.446c-0.354-0.334-0.695-0.684-1.042-1.025l-1.163-1.142v1.825c0,0.42-0.263,0.758-0.698,0.758
	h-0.119c-0.435,0-0.698-0.338-0.698-0.758V34.879c0-0.421,0.263-0.757,0.698-0.757h0.119c0.435,0,0.698,0.336,0.698,0.757V39.582z
	 M25.29,38.556c-0.229-0.107-0.657-0.143-0.904-0.152c-1.266-0.048-2.182,0.665-2.719,1.782c-0.186,0.385-0.27,0.793-0.27,1.219
	c0,1.298,0.681,2.207,1.84,2.761c0.423,0.202,0.97,0.241,1.432,0.241c0.407,0,0.982-0.249,1.343-0.421l0.063-0.03h0.28l0.031,0.006
	c0.345,0.072,0.605,0.29,0.605,0.661v0.15c0,0.923-1.686,1.134-2.33,1.179c-2.27,0.157-3.968-1.09-4.616-3.255
	c-0.113-0.376-0.163-0.75-0.163-1.141v-0.3c0-1.643,0.815-2.945,2.225-3.782c0.655-0.389,1.38-0.585,2.142-0.585h0.3
	c0.808,0,1.552,0.229,2.218,0.685l0.055,0.038l0.035,0.057c0.072,0.119,0.134,0.257,0.134,0.4v0.15c0,0.387-0.289,0.595-0.639,0.662
	l-0.029,0.005h-0.09C26.006,38.885,25.492,38.65,25.29,38.556z M11.473,41.436c0,1.152,0.565,1.999,1.538,2.595
	c0.457,0.28,0.96,0.406,1.494,0.406c1.138,0,1.979-0.577,2.565-1.538c0.279-0.458,0.405-0.961,0.405-1.494
	c0-1.071-0.516-1.889-1.398-2.482c-0.483-0.325-1.021-0.488-1.603-0.488c-1.269,0-2.183,0.641-2.731,1.781
	C11.557,40.6,11.473,41.009,11.473,41.436z M14.324,36.918h0.21c1.756,0,3.091,0.852,3.937,2.384
	c0.338,0.613,0.519,1.282,0.519,1.983v0.3c0,1.643-0.81,2.952-2.226,3.783c-0.656,0.385-1.38,0.584-2.14,0.584h-0.3
	c-1.643,0-2.949-0.812-3.782-2.226c-0.387-0.656-0.584-1.38-0.584-2.141v-0.3c0-1.643,0.815-2.945,2.225-3.783
	C12.838,37.113,13.563,36.918,14.324,36.918z M1.55,41.436c0,1.187,0.575,2.079,1.615,2.648c0.42,0.23,0.877,0.354,1.357,0.354
	c1.165,0,2.029-0.549,2.624-1.536c0.277-0.459,0.406-0.961,0.406-1.496c0-1.029-0.487-1.831-1.316-2.428
	c-0.503-0.361-1.068-0.543-1.685-0.543c-1.269,0-2.183,0.641-2.731,1.781C1.634,40.6,1.55,41.009,1.55,41.436z M7.552,38.049v-3.2
	c0-0.42,0.263-0.758,0.698-0.758H8.37c0.435,0,0.697,0.338,0.697,0.758v6.736c0,1.643-0.812,2.95-2.226,3.782
	c-0.656,0.386-1.38,0.584-2.14,0.584H4.4c-1.643,0-2.948-0.812-3.782-2.226c-0.387-0.656-0.584-1.38-0.584-2.141v-0.3
	c0-1.643,0.812-2.95,2.225-3.784c0.656-0.387,1.38-0.584,2.141-0.584h0.301C5.813,36.918,6.756,37.349,7.552,38.049z"/>
<path id="outline_4_" fill-rule="evenodd" clip-rule="evenodd" fill="#394D54" d="M28.842,12.969h4.472v4.571h2.261
	c1.044,0,2.118-0.186,3.107-0.521c0.486-0.165,1.031-0.394,1.51-0.682c-0.631-0.824-0.953-1.865-1.048-2.89
	c-0.129-1.395,0.153-3.211,1.097-4.303l0.47-0.544l0.56,0.45c1.41,1.133,2.596,2.716,2.805,4.521
	c1.698-0.499,3.692-0.381,5.188,0.483l0.614,0.354l-0.323,0.631c-1.266,2.47-3.912,3.236-6.499,3.1
	c-3.871,9.643-12.3,14.208-22.52,14.208c-5.28,0-10.124-1.974-12.882-6.658l-0.045-0.077l-0.402-0.818
	c-0.932-2.062-1.242-4.321-1.032-6.578l0.063-0.676h3.824v-4.571h4.471V8.497h8.943V4.026h5.366V12.969z"/>
<path fill="#00AADA" d="M43.33,14.66c0.3-2.33-1.444-4.16-2.525-5.029c-1.246,1.441-1.44,5.217,0.515,6.807
	c-1.091,0.969-3.39,1.848-5.745,1.848H6.917c-0.229,2.458,0.203,4.721,1.188,6.658l0.326,0.596c0.206,0.35,0.432,0.688,0.676,1.014
	h0c1.178,0.076,2.264,0.102,3.258,0.08c0,0,0,0,0.001,0c1.953-0.043,3.547-0.274,4.754-0.692c0.18-0.062,0.376,0.033,0.438,0.212
	c0.062,0.18-0.033,0.376-0.213,0.438c-0.161,0.056-0.328,0.108-0.501,0.157c0,0,0,0-0.001,0c-0.951,0.271-1.971,0.454-3.286,0.536
	c0.078,0.001-0.081,0.012-0.082,0.012c-0.045,0.003-0.101,0.009-0.146,0.012c-0.518,0.029-1.077,0.035-1.648,0.035
	c-0.625,0-1.241-0.012-1.929-0.047l-0.018,0.012c2.388,2.684,6.121,4.293,10.801,4.293c9.905,0,18.306-4.391,22.026-14.248
	c2.639,0.271,5.176-0.402,6.33-2.655C47.054,13.638,44.691,13.976,43.33,14.66z"/>
<path fill="#24B8EB" d="M43.33,14.66c0.3-2.33-1.444-4.16-2.525-5.029c-1.246,1.441-1.44,5.217,0.515,6.807
	c-1.091,0.969-3.39,1.848-5.745,1.848H8.614c-0.117,3.764,1.28,6.621,3.751,8.348c0,0,0,0,0.001,0
	c1.953-0.043,3.547-0.274,4.754-0.692c0.18-0.062,0.376,0.033,0.438,0.212c0.062,0.18-0.033,0.376-0.213,0.438
	c-0.161,0.056-0.328,0.108-0.501,0.157c0,0,0,0-0.001,0c-0.951,0.271-2.058,0.478-3.374,0.559c0,0-0.032-0.03-0.032-0.03
	c3.371,1.729,8.258,1.723,13.862-0.43c6.283-2.414,12.13-7.013,16.21-12.273C43.447,14.602,43.387,14.631,43.33,14.66z"/>
<path fill="#008BB8" d="M6.971,21.271c0.178,1.316,0.563,2.549,1.134,3.672l0.326,0.596c0.206,0.35,0.432,0.688,0.676,1.014
	c1.178,0.076,2.265,0.102,3.259,0.08c1.953-0.043,3.547-0.274,4.754-0.692c0.18-0.062,0.376,0.033,0.438,0.212
	c0.062,0.18-0.033,0.376-0.213,0.438c-0.161,0.056-0.328,0.108-0.501,0.157c0,0,0,0-0.001,0c-0.951,0.271-2.053,0.466-3.368,0.547
	c-0.045,0.003-0.124,0.003-0.169,0.006c-0.518,0.029-1.071,0.047-1.642,0.047c-0.625,0-1.264-0.012-1.952-0.047
	c2.388,2.684,6.145,4.299,10.825,4.299c8.479,0,15.856-3.219,20.138-10.33H6.971z"/>
<path fill="#039BC6" d="M8.872,21.271c0.507,2.311,1.725,4.126,3.493,5.362c1.953-0.043,3.547-0.274,4.754-0.692
	c0.18-0.062,0.376,0.033,0.438,0.212c0.062,0.18-0.033,0.376-0.213,0.438c-0.161,0.056-0.328,0.108-0.501,0.157c0,0,0,0-0.001,0
	c-0.951,0.271-2.076,0.466-3.392,0.547c3.37,1.729,8.244,1.704,13.847-0.448c3.39-1.302,6.652-3.241,9.579-5.576H8.872z"/>
<path fill-rule="evenodd" clip-rule="evenodd" fill="#00ACD3" d="M14.053,14.037h0.306v3.23h-0.306V14.037z M13.466,14.037h0.318
	v3.23h-0.318V14.037z M12.879,14.037h0.318v3.23h-0.318V14.037z M12.291,14.037h0.318v3.23h-0.318V14.037z M11.704,14.037h0.318
	v3.23h-0.318V14.037z M11.129,14.037h0.306v3.23h-0.306V14.037z M10.807,13.714h3.875v3.876h-3.875V13.714z"/>
<path fill-rule="evenodd" clip-rule="evenodd" fill="#00ACD3" d="M18.525,9.565h0.306v3.23h-0.306V9.565z M17.938,9.565h0.318v3.23
	h-0.318V9.565z M17.35,9.565h0.318v3.23H17.35V9.565z M16.763,9.565h0.318v3.23h-0.318V9.565z M16.176,9.565h0.318v3.23h-0.318
	V9.565z M15.601,9.565h0.306v3.23h-0.306V9.565z M15.278,9.242h3.876v3.875h-3.876V9.242z"/>
<path fill-rule="evenodd" clip-rule="evenodd" fill="#20C2EF" d="M18.525,14.037h0.306v3.23h-0.306V14.037z M17.938,14.037h0.318
	v3.23h-0.318V14.037z M17.35,14.037h0.318v3.23H17.35V14.037z M16.763,14.037h0.318v3.23h-0.318V14.037z M16.176,14.037h0.318v3.23
	h-0.318V14.037z M15.601,14.037h0.306v3.23h-0.306V14.037z M15.278,13.714h3.876v3.876h-3.876V13.714z"/>
<path fill-rule="evenodd" clip-rule="evenodd" fill="#00ACD3" d="M22.997,14.037h0.306v3.23h-0.306V14.037z M22.409,14.037h0.318
	v3.23h-0.318V14.037z M21.822,14.037h0.318v3.23h-0.318V14.037z M21.235,14.037h0.318v3.23h-0.318V14.037z M20.648,14.037h0.318
	v3.23h-0.318V14.037z M20.073,14.037h0.306v3.23h-0.306V14.037z M19.75,13.714h3.876v3.876H19.75V13.714z"/>
<path fill-rule="evenodd" clip-rule="evenodd" fill="#20C2EF" d="M22.997,9.565h0.306v3.23h-0.306V9.565z M22.409,9.565h0.318v3.23
	h-0.318V9.565z M21.822,9.565h0.318v3.23h-0.318V9.565z M21.235,9.565h0.318v3.23h-0.318V9.565z M20.648,9.565h0.318v3.23h-0.318
	V9.565z M20.073,9.565h0.306v3.23h-0.306V9.565z M19.75,9.242h3.876v3.875H19.75V9.242z"/>
<path fill-rule="evenodd" clip-rule="evenodd" fill="#20C2EF" d="M27.468,14.037h0.306v3.23h-0.306V14.037z M26.881,14.037h0.318
	v3.23h-0.318V14.037z M26.294,14.037h0.318v3.23h-0.318V14.037z M25.707,14.037h0.318v3.23h-0.318V14.037z M25.119,14.037h0.318
	v3.23h-0.318V14.037z M24.544,14.037h0.306v3.23h-0.306V14.037z M24.221,13.714h3.876v3.876h-3.876V13.714z"/>
<path fill-rule="evenodd" clip-rule="evenodd" fill="#00ACD3" d="M27.468,9.565h0.306v3.23h-0.306V9.565z M26.881,9.565h0.318v3.23
	h-0.318V9.565z M26.294,9.565h0.318v3.23h-0.318V9.565z M25.707,9.565h0.318v3.23h-0.318V9.565z M25.119,9.565h0.318v3.23h-0.318
	V9.565z M24.544,9.565h0.306v3.23h-0.306V9.565z M24.221,9.242h3.876v3.875h-3.876V9.242z"/>
<path fill-rule="evenodd" clip-rule="evenodd" fill="#20C2EF" d="M27.468,5.094h0.306v3.23h-0.306V5.094z M26.881,5.094h0.318v3.23
	h-0.318V5.094z M26.294,5.094h0.318v3.23h-0.318V5.094z M25.707,5.094h0.318v3.23h-0.318V5.094z M25.119,5.094h0.318v3.23h-0.318
	V5.094z M24.544,5.094h0.306v3.23h-0.306V5.094z M24.221,4.771h3.876v3.876h-3.876V4.771z"/>
<path fill-rule="evenodd" clip-rule="evenodd" fill="#00ACD3" d="M31.94,14.037h0.306v3.23H31.94V14.037z M31.353,14.037h0.318v3.23
	h-0.318V14.037z M30.765,14.037h0.318v3.23h-0.318V14.037z M30.178,14.037h0.318v3.23h-0.318V14.037z M29.591,14.037h0.318v3.23
	h-0.318V14.037z M29.016,14.037h0.306v3.23h-0.306V14.037z M28.693,13.714h3.876v3.876h-3.876V13.714z"/>
<path fill-rule="evenodd" clip-rule="evenodd" fill="#D4EDF1" d="M18.911,23.873c0.59,0,1.069,0.479,1.069,1.069
	s-0.479,1.069-1.069,1.069c-0.591,0-1.069-0.479-1.069-1.069S18.321,23.873,18.911,23.873"/>
<path fill-rule="evenodd" clip-rule="evenodd" fill="#394D54" d="M18.911,24.176c0.098,0,0.191,0.018,0.277,0.052
	c-0.093,0.054-0.156,0.155-0.156,0.271c0,0.173,0.14,0.312,0.313,0.312c0.118,0,0.221-0.066,0.274-0.163
	c0.037,0.09,0.058,0.19,0.058,0.294c0,0.423-0.343,0.766-0.766,0.766c-0.423,0-0.766-0.343-0.766-0.766
	C18.145,24.519,18.488,24.176,18.911,24.176"/>
<path fill-rule="evenodd" clip-rule="evenodd" fill="#394D54" d="M0,21.657h23.42h2.897h23.419c-1.083-0.275-3.426-0.646-3.04-2.065
	c-1.969,2.279-6.718,1.599-7.916,0.475c-1.335,1.936-9.104,1.2-9.646-0.308c-1.673,1.964-6.858,1.964-8.531,0
	c-0.542,1.508-8.311,2.244-9.646,0.308c-1.198,1.124-5.947,1.804-7.916-0.475C3.427,21.012,1.083,21.383,0,21.657"/>
<path fill="#BFDBE0" d="M21.753,31.577c-2.648-1.256-4.101-2.964-4.91-4.829c-0.984,0.281-2.166,0.46-3.539,0.537
	c-0.518,0.029-1.062,0.044-1.633,0.044c-0.658,0-1.353-0.019-2.081-0.058c2.428,2.427,5.415,4.295,10.946,4.329
	C20.944,31.601,21.35,31.593,21.753,31.577z"/>
<path fill="#D4EDF1" d="M17.827,28.469c-0.366-0.497-0.722-1.122-0.983-1.721c-0.984,0.281-2.166,0.46-3.54,0.538
	C14.248,27.798,15.597,28.272,17.827,28.469z"/>
</svg>
