<svg xmlns="http://www.w3.org/2000/svg" class="" id="FxSymbol0-0b4" role="presentation" viewBox="0 0 612 792" focusable="false" xmlns:xlink="http://www.w3.org/1999/xlink" xmlns:svg="http://www.w3.org/2000/svg">
<g>
<title/>
<path class="msportalfx-svg-c19" fill="#0072c6" d="M 399 118 c 61 0 122 0 183 -0.1 c 3.4 0 4.1 0.7 4.1 4.1 c -0.1 60.7 -0.1 121.3 -0.1 182 c -58.9 0 -117.8 0 -176.8 -0.1 c -3.1 0 -6.2 1.5 -9.2 0.1 c -0.3 -0.3 -0.6 -0.7 -1 -1 V 118 Z"/>
<path class="msportalfx-svg-c15" fill="#59b4d9" d="M 28 304 h 185.8 l 0.4 -0.1 c -0.1 2.2 -0.2 4.3 -0.2 6.5 V 490 l 0.1 -0.1 h -186 C 28 428 28 366 28 304 Z"/>
<path class="msportalfx-svg-c19" fill="#0072c6" d="M 28 490 h 186 v 186 c -60.7 0 -121.3 0 -182 0.1 c -3.4 0 -4.1 -0.7 -4.1 -4.1 c 0.1 -60.7 0.1 -121.3 0.1 -182 Z"/>
<path class="msportalfx-svg-c15" fill="#59b4d9" d="M 214 676 V 490 l -0.1 0.1 h 179.6 c 2.2 0 4.3 -0.2 6.5 -0.2 l -0.1 0.4 v 185.8 C 338 676 276 676 214 676 Z"/>
<path class="msportalfx-svg-c16" fill="#3999c6" d="M 586 490 H 406 c -2 0 -4 0.1 -6 0.2 l 0.1 -0.4 c 0 -61.9 0 -123.8 -0.1 -185.8 c 3.1 1.5 6.2 -0.1 9.2 -0.1 c 59 0.1 117.9 0.1 176.8 0.1 v 186 Z M 213.8 304 c 0.1 -5.1 0.2 -10.3 0.2 -15.4 V 118 h 185 v 185 c -1.1 1.4 -2.7 1 -4.2 1 h -181 Z"/>
<path class="msportalfx-svg-c19" fill="#0072c6" d="M 214.3 303.9 h 180.6 c 1.4 0 3 0.4 4.2 -1 c 0.3 0.3 0.6 0.7 1 1 c 0 61.9 0 123.8 0.1 185.8 c -2.2 0.1 -4.3 0.2 -6.5 0.2 H 214.1 V 310.3 c -0.1 -2.1 0.1 -4.2 0.2 -6.4 Z"/>
</g>
</svg>