<?xml version="1.0" encoding="utf-8"?>
<!-- Generator: Adobe Illustrator 23.0.3, SVG Export Plug-In . SVG Version: 6.00 Build 0)  -->
<svg version="1.1" id="Layer_1" xmlns="http://www.w3.org/2000/svg" xmlns:xlink="http://www.w3.org/1999/xlink" x="0px" y="0px"
	 width="50px" height="50px" viewBox="0 0 50 50" enable-background="new 0 0 50 50" xml:space="preserve">
<path fill="#7A7A7A" d="M33,38h-1.207H19.892h-0.621C20.92,43.999,18.705,44.859,9,44.859V48h12.342h9.011H42v-3.141
	c-9.705,0-10.656-0.857-9.005-6.859"/>
<path fill="#A0A1A2" d="M46.98,2H2.719C1.215,2,0.002,3.345,0.002,4.847v31.329c0,1.493,1.213,2.823,2.717,2.823H46.98
	c1.501,0,3.021-1.33,3.021-2.823V4.847C50.001,3.341,48.481,2,46.98,2"/>
<path opacity="0.2" fill="#FFFFFF" enable-background="new    " d="M47.011,2.003c-0.011,0-0.021-0.002-0.031-0.002H2.718
	c-1.504,0-2.717,1.344-2.717,2.847v31.328C0.001,37.67,1.214,39,2.718,39h1.053L47.011,2.003z"/>
<polygon fill="#59B4D9" points="46,6 46,35 4,35 4,6 "/>
<rect x="9" y="45" fill="#A0A1A2" width="33" height="3"/>
<path fill="#B8D432" d="M25.518,4.095c0,0.392-0.318,0.71-0.71,0.71c-0.393,0-0.709-0.318-0.709-0.71c0-0.393,0.316-0.71,0.709-0.71
	C25.2,3.385,25.518,3.702,25.518,4.095"/>
<g id="Layer_2" opacity="0.85">
	<path opacity="0.4" fill="#FFFFFF" enable-background="new    " d="M26.705,13.831l-0.512,0.315l-0.443-0.807
		c-0.169-0.308-0.193-0.569-0.078-0.846c0.099-0.238,0.302-0.375,0.556-0.375l0.06,0.002c0.285,0.023,0.569,0.318,0.655,0.58
		C27.034,12.978,27.034,13.629,26.705,13.831z"/>
	<path fill="#FBFBF9" d="M21.73,29.349c0.001-0.031-2.533-4.095-2.384-4.8c1.194-5.673,2.614-6.501,3.134-7.7
		c0.52-1.199,0.22-2.305,0.842-2.319c0.621-0.014,2.443,0.123,2.887,0.271c0.444,0.147,1.074,0.595,1.423,1.574
		c0.473,0.895,0.938,1.793,1.084,2.814c0.013,0.094,0.055,0.184,0.119,0.254c1.18,1.301,1.419,2.881,1.333,4.551
		c-0.022,0.423-0.077,1.046-0.134,1.264c-0.057,0.219-1.651,5.377-4.161,5.315C23.362,30.509,22.026,29.575,21.73,29.349z"/>
	<path fill="#FF8C00" d="M35.229,28.146c-0.919-0.046-1.404-0.598-1.408-1.126c-0.005-0.618,0.255-1.395-0.64-1.473
		c-0.895-0.079-2.726-0.174-3.217-0.264c-1.071-0.197-1.125,0.24-1.142,0.55c-0.008,0.146,0.127,1.597-0.014,2.163
		c0.009,0.246-0.008,0.489-0.046,0.735c-0.102,0.66-0.18,1.325-0.267,1.987c-0.006,0.323-0.011,0.646-0.017,0.969
		c0.779,1.146,2.293,1.189,3.23,0.196c0.879-0.894,1.94-1.511,3.057-2.052c0.316-0.154,0.615-0.385,0.783-0.83
		C35.717,28.555,35.559,28.162,35.229,28.146z"/>
	<path fill="#1E1E1E" d="M23.01,27.593c-0.126,0.618-0.796,1.165-1.143,1.118c-0.215-0.118-0.799-0.889-0.925-1.079
		c-0.38-0.577-2.044-2.962-2.529-2.779c-0.158,0.02-0.248,0.129-0.329,0.249c-0.033,0.013-0.066,0.026-0.099,0.039
		c-0.248-0.535-0.228-1.071,0.05-1.58c0.613-1.12,0.896-2.271,1.208-3.515c0.105-0.418,0.36-0.766,0.624-1.1
		c0.492-0.625,0.48-1.253,0.982-1.869c0.321-0.394,0.602-0.823,0.572-1.333c-0.085-1.437-0.268-2.834-0.207-4.274
		c0.06-1.411,1.292-2.596,2.675-3.104c1.434-0.527,2.791-0.268,3.943,0.764c0.905,0.81,1.301,1.874,1.37,3.07
		c0.013,0.219,0.024,0.44,0.015,0.658c-0.103,2.247,0.842,4.076,2.274,5.709c1.374,1.566,1.912,3.443,2.036,5.471
		c0.032,0.53-0.138,1.025-0.355,1.502c-0.3,0.691-0.731,1.12-1.124,1.297c-0.394,0.177-1.947,0.299-1.646-0.721
		c0.148-0.502,0.172-0.715-0.447-0.84c0.046-0.421,0.112-0.842,0.134-1.264c0.087-1.671-0.206-2.99-1.472-4.177
		c-0.391-0.367-0.024-0.427-0.037-0.757c-0.033-0.891-0.554-1.79-1.027-2.684c-0.041-0.165-0.12-0.311-0.228-0.442
		c0.035-0.14-0.053-0.241-0.109-0.352c0.07-0.283,0.191-0.557,0.134-0.859c0.004-0.26-2.666-0.372-2.999-0.239
		c-0.14-0.047-1.562-0.108-1.558-0.084c-0.192,0.143-0.327,0.332-0.387,0.56c-0.057,0.216,0.29,0.663,0.327,0.736
		c-0.016,0.306-0.032,0.611-0.048,0.916c-0.03,0.107-0.06,0.214-0.09,0.321c-0.227,0.35-0.46,0.697-0.679,1.052
		c-0.197,0.319-0.422,0.629-0.45,1.023c-0.155,0.4,0.399,0.93-0.105,1.396c-0.504,0.466-1.011,2.714-1.019,3.244
		c-0.009,0.57,1.032,1.872,1.43,2.248C22.503,26.602,23.159,26.865,23.01,27.593z"/>
	<path fill="#1E1E1E" d="M22.506,29.738c1.076,0.304,4.105,0.395,5.576-1.08c0.246-0.225,0.493-0.45,0.74-0.675
		c0.009,0.246-0.008,0.489-0.046,0.735c-0.102,0.66-0.18,1.325-0.267,1.987c-0.006,0.323-0.011,0.646-0.017,0.969
		c-1.356-0.373-3.391-0.505-3.999-0.473c-0.607,0.032-1.437,0.184-1.918,0.31L22.506,29.738z"/>
	<path fill="#DDA516" d="M33.902,27.184c-0.022-0.032-0.044-0.064-0.067-0.096C33.857,27.12,33.879,27.152,33.902,27.184z"/>
	<path fill="#DDA516" d="M33.507,25.783c-0.029-0.028-0.058-0.055-0.087-0.083C33.449,25.728,33.478,25.755,33.507,25.783z"/>
	<path fill="#8C5F07" d="M21.889,28.837c0.014,0.023,0.029,0.046,0.043,0.069C21.919,28.883,21.904,28.859,21.889,28.837z"/>
	<polygon fill="#E3A906" points="33.42,25.7 33.421,25.701 33.422,25.701 	"/>
	<path fill="#FF8C00" d="M21.449,28.189c-0.786-0.815-1.389-1.804-1.942-2.911c-0.291-0.582-1.18-1.044-1.512-0.13
		c-0.332,0.914-0.86,1.285-1.724,1.171c-0.63-0.084-1.223,0.401-0.959,1.198c0.285,0.86,0.61,1.533-0.014,2.135
		c-0.624,0.603-0.371,1.225,0.508,1.344c0.879,0.119,3.19,0.645,4.523,1.35c1.334,0.704,2.398-0.628,2.539-1.022
		C23.22,30.348,22.236,29.004,21.449,28.189z"/>
	<path fill="#1E1E1E" d="M24.423,18.628c-0.751,0-1.253-0.711-1.607-1.331l0,0c-0.003,0-1.162-1.626-0.739-2.524
		c0.059-0.126,0.158-0.338,1.351-1.075l0.222-0.188l0.212-0.107l0.137-0.054c0.164-0.052,0.351-0.104,0.528-0.104h0.082l0.158,0.037
		l0.355,0.119l2.897,1.07l0.081,0.434c0.066,0.353-0.022,0.659-0.094,0.905l-0.11,0.425l-0.248,0.091
		c-0.219,0.08-0.561,0.446-0.836,0.741c-0.273,0.292-0.531,0.568-0.796,0.739c-0.094,0.066-0.198,0.145-0.298,0.219
		C25.303,18.334,24.912,18.628,24.423,18.628z"/>
	<path fill="#FF8C00" d="M26.356,15.069c-0.513,0.443-1.099,0.824-1.828,0.844c-0.027,0.023-0.027,0.023,0,0
		c0.005-0.166-0.005-0.325-0.146-0.446c-0.117-0.1-0.131-0.248-0.097-0.378c0.137-0.524,0.053-1.055,0.073-1.582
		c-0.137-0.046-0.451,0.069-0.492,0.079c-0.064,0.032-0.128,0.064-0.191,0.096c-0.073,0.061-0.145,0.121-0.218,0.182
		c-0.093,0.058-1.078,0.659-1.179,0.873c-0.26,0.552,0.596,1.905,0.721,2.063c1,1.755,1.555,0.994,2.494,0.337
		c0.504-0.326,1.16-1.32,1.73-1.53c0.07-0.283,0.191-0.557,0.134-0.859C26.997,14.768,26.677,14.792,26.356,15.069z"/>
	<path fill="#E3A906" d="M23.943,13.516c0.003,0.002,0.005,0.001,0.008,0.002c-0.002-0.005,0-0.006-0.003-0.011L23.943,13.516z"/>
	<path fill="#FCD116" d="M26.947,14.351c0.217,0.109,0.415,0.233,0.411,0.518c-0.395,0.024-0.746,0.05-1.096,0.353
		c-0.561,0.485-1.321,1.203-2.119,1.225c0.032-0.262-0.345-0.639-0.243-1.086c0.132-0.577,0.153-1.272,0.175-1.85
		c0.365-0.146,0.704-0.013,1.046,0.094c0.142,0.086,0.285,0.173,0.427,0.258c0.249,0.095,0.498,0.19,0.747,0.286
		C26.491,14.283,26.724,14.3,26.947,14.351z"/>
</g>
<rect x="23" y="12.554" opacity="0.9" fill="#FFFFFF" width="1" height="1"/>
<rect x="26" y="12.554" opacity="0.9" fill="#FFFFFF" width="1" height="1"/>
</svg>
